PathFileType	4	(X/Y/Z)	s01c0201.trc
DataRate	CameraRate	NumFrames	NumMarkers	Units	OrigDataRate	OrigDataStartFrame	OrigNumFrames
200	200	4	48	mm	200	250	2000
Frame#	Time	racr			lacr			c7			jug			rlel			rdr			llel			ldr			s2			lic			ric			lasi			rasi			rpsi			lpsi			rgt			lgt			rth1			rth2			rth3			rth4			rlfc			rsh1			rsh2			rsh3			rsh4			rlmal			rmmal			rcal			rtoe			rmt5			lth1			lth2			lth4			lth3			llfc			lsh1			lsh2			lsh3			lsh4			llmal			lmmal			lcal			ltoe			lmt5			SBIKE			LBIKE			RBIKE			
		X1	Y1	Z1	X2	Y2	Z2	X3	Y3	Z3	X4	Y4	Z4	X5	Y5	Z5	X6	Y6	Z6	X7	Y7	Z7	X8	Y8	Z8	X9	Y9	Z9	X10	Y10	Z10	X11	Y11	Z11	X12	Y12	Z12	X13	Y13	Z13	X14	Y14	Z14	X15	Y15	Z15	X16	Y16	Z16	X17	Y17	Z17	X18	Y18	Z18	X19	Y19	Z19	X20	Y20	Z20	X21	Y21	Z21	X22	Y22	Z22	X23	Y23	Z23	X24	Y24	Z24	X25	Y25	Z25	X26	Y26	Z26	X27	Y27	Z27	X28	Y28	Z28	X29	Y29	Z29	X30	Y30	Z30	X31	Y31	Z31	X32	Y32	Z32	X33	Y33	Z33	X34	Y34	Z34	X35	Y35	Z35	X36	Y36	Z36	X37	Y37	Z37	X38	Y38	Z38	X39	Y39	Z39	X40	Y40	Z40	X41	Y41	Z41	X42	Y42	Z42	X43	Y43	Z43	X44	Y44	Z44	X45	Y45	Z45	X46	Y46	Z46	X47	Y47	Z47	X48	Y48	Z48	
250	1.2500	511.230884	1283.923481	-166.716708	495.342359	1235.020776	-473.869795	466.284582	1330.131714	-316.223089	469.004606	1162.341197	-300.534701	505.778660	1046.368610	10.819685	692.420218	893.207367	-64.902405	483.173281	992.629131	-618.884392	664.763714	898.872620	-471.394077	-73.637373	1177.848138	-257.600976	102.190447	1154.296233	-437.464389	91.636645	1162.925196	-102.855182	97.161178	1106.924336	-405.414489	105.131344	1115.074173	-122.234169	-35.972221	1213.748998	-207.044809	-37.721777	1216.838348	-311.350232	20.617609	1054.739338	-65.740994	41.542835	1048.738085	-454.067262	118.792881	956.893606	-49.735390	179.779579	901.292867	-56.932612	241.079931	835.822373	-68.584745	216.894821	939.085915	-73.006378	280.612529	734.374246	-94.380366	196.383191	651.544381	-62.446648	144.398719	584.604122	-67.692682	82.634898	521.096698	-81.033086	176.747295	555.341517	-109.231855	-8.112787	428.176535	-102.282906	42.841460	423.756838	-177.827577	-58.178821	413.155328	-161.936940	177.508678	275.676052	-137.856506	68.726574	296.760246	-75.047715	153.793810	966.903073	-461.059168	213.504329	928.989622	-426.476073	232.457921	979.505554	-420.976669	290.434231	894.335927	-402.102117	373.714708	820.489160	-373.778257	330.831346	719.612889	-416.605477	314.526904	634.249612	-417.516041	295.005970	550.617220	-412.841358	365.296807	624.644172	-384.477228	262.484086	426.211841	-410.625794	288.756864	433.448926	-321.245441	212.735021	382.370447	-371.889283	491.094077	394.646098	-385.079668	387.989660	361.640004	-448.802161	-228.608265	890.925454	-252.813431	-21.397931	80.405367	-454.213830	-21.402934	80.363557	-54.149186	
251	1.2550	511.063478	1283.277020	-167.303601	495.052221	1234.198256	-474.299691	466.080350	1329.382594	-316.796373	468.490858	1161.527599	-301.003548	505.414535	1046.140311	10.910465	692.246808	893.245598	-65.000387	482.913035	991.872993	-619.196303	664.521094	898.747543	-471.436059	-74.196034	1178.132035	-257.765963	101.136685	1154.218267	-437.420207	90.907073	1163.327927	-102.986823	96.598632	1106.916062	-405.733023	104.532674	1115.412311	-122.434822	-36.439092	1214.097789	-207.295443	-38.140210	1217.065462	-311.517352	20.003419	1055.258389	-65.793699	40.710221	1048.595385	-454.187814	118.563571	957.777553	-49.523750	179.779663	902.487000	-56.740583	241.530713	837.414349	-68.705706	216.722249	940.516662	-72.756210	281.416514	736.240116	-94.136447	196.911189	653.663623	-62.301484	144.596897	586.942904	-67.621614	82.537338	523.735599	-81.014620	180.046200	559.393308	-107.687602	-8.388747	431.136724	-102.428628	42.550836	426.844550	-177.873924	-59.045670	416.548851	-161.863345	176.953699	278.591054	-137.944368	68.083964	299.752480	-75.082835	150.203634	965.484424	-459.043897	211.894259	927.677979	-426.797322	231.242233	978.121973	-421.355654	288.658251	892.519803	-402.365960	371.538958	818.658091	-374.195123	329.551966	717.109113	-417.133760	313.702344	631.701032	-417.910805	294.835560	547.848728	-413.095709	364.560068	622.352369	-384.697646	262.938520	423.298676	-410.745068	289.255146	430.866054	-321.414744	214.222422	378.733986	-370.306999	491.748014	391.576557	-384.984985	388.637227	358.665242	-448.828939	-228.627271	890.910051	-252.842695	-21.410320	80.378386	-454.234240	-21.389231	80.341704	-54.147756	
252	1.2600	510.890511	1282.602371	-167.956332	494.762386	1233.341218	-474.712947	465.884948	1328.627089	-317.387088	468.050090	1160.769485	-301.425093	505.034657	1046.020784	11.095736	692.080326	893.319418	-65.010621	482.631602	991.094448	-619.515696	664.273067	898.583507	-471.446500	-74.696306	1178.428801	-257.965455	100.341673	1154.212850	-437.518938	90.396645	1163.660924	-103.028211	96.038039	1106.916736	-406.074419	103.971460	1115.724063	-122.597293	-36.897631	1214.385265	-207.590103	-38.560899	1217.265052	-311.677612	19.375365	1055.789843	-65.824866	39.864616	1048.415496	-454.276871	118.365848	958.658555	-49.414357	179.855114	903.742117	-56.580980	241.949286	838.938805	-68.560423	216.637668	941.900586	-72.573923	282.212651	738.079786	-93.988085	197.497839	655.812729	-62.208032	144.860973	589.316114	-67.570284	82.500403	526.336456	-81.038436	180.216102	561.706120	-107.640025	-8.699597	434.259039	-102.418581	42.135292	429.750810	-177.976704	-59.517473	419.668121	-161.842527	176.334267	281.584246	-138.051820	67.560854	302.830707	-75.108528	146.298626	963.899187	-456.696317	210.301155	926.450040	-427.102433	230.037955	976.665749	-421.789552	286.939859	890.647666	-402.520577	369.399908	816.576172	-374.477577	328.255504	714.561613	-417.604274	313.025117	629.071379	-418.240562	294.565463	545.081078	-413.338080	364.001339	620.093055	-385.270959	263.347664	420.362487	-410.848952	289.722341	427.920228	-321.692041	214.498129	376.143063	-371.406761	492.393304	388.411777	-385.003452	389.247434	355.621672	-448.871543	-228.640930	890.907874	-252.826996	-21.415458	80.387993	-454.214809	-21.387849	80.346759	-54.145591	
253	1.2650	510.757132	1281.964672	-168.425547	494.411440	1232.498501	-475.135526	465.686698	1327.903194	-317.965151	467.506128	1159.922822	-301.918938	504.685052	1045.872366	11.272055	691.933349	893.409521	-65.022401	482.399268	990.267291	-619.797920	664.008942	898.406181	-471.488818	-75.264422	1178.688363	-258.175418	99.806294	1154.528112	-437.832092	89.818741	1164.020779	-103.136239	95.486007	1106.910064	-406.418060	103.420272	1115.965206	-122.765469	-37.334830	1214.650884	-207.805084	-38.981411	1217.433003	-311.826964	18.838775	1056.382059	-65.859191	39.062951	1048.296059	-454.389842	118.186819	959.554876	-49.305078	179.979975	904.906067	-56.378931	242.405860	840.434836	-68.406622	216.573773	943.316981	-72.398310	283.161988	740.022398	-93.768660	198.133520	657.975655	-62.084999	145.252658	591.735080	-67.487606	82.595794	529.150189	-81.023718	180.432192	564.001981	-107.610637	-8.971638	437.395035	-102.440939	41.723546	432.760820	-178.000120	-59.927264	422.899826	-161.857486	175.731112	284.560333	-138.140797	67.075404	306.001252	-75.063531	142.194300	962.189475	-454.123689	208.729270	924.979022	-427.391569	228.816466	975.153026	-422.241418	284.990809	888.700894	-402.774535	367.881951	813.298744	-374.319329	326.936155	712.065914	-418.116918	312.183675	626.267879	-418.525546	294.185085	542.215681	-413.630543	363.175698	617.748592	-385.550131	263.711518	417.405687	-410.937437	290.344627	425.322078	-321.943867	215.036843	373.293645	-371.469546	492.945983	385.172305	-384.879542	389.854811	352.518546	-448.822062	-228.662432	890.893682	-252.830564	-21.412219	80.365532	-454.220745	-21.397856	80.340759	-54.151769	
